# xmcd
#
# Track frame offsets:
#	150
#	11820
#	24720
#	37932
#	47174
#	58769
#	71318
#	82583
#	92870
#	103043
#	114928
#	126351
#	138856
#	153205
#	171307
#	184186
#	196140
#	208331
#	218088
#	230958
#	243690
#	253788
#	262704
#	273043
#
# Disc length: 3804 seconds
#
# Revision: 1
# Processed by: cddbd v1.5.2PL0 Copyright (c) Steve Scherf et al.
# Submitted via: audiograbber 1.83.01
#
DISCID=500eda18
DTITLE=Various Artist - Record One - Superstars-Superhits -- Record Two - Mule Skinner
DTITLE=Blues
DYEAR=1900
DGENRE=
TTITLE0=Jim Reeves - Welcome To My World
TTITLE1=Johnny Cash - Folsom Prison Blues
TTITLE2=Loretta Lynn - Woman Of The World
TTITLE3=Charley Pride - Kiss An Anger Good Morning
TTITLE4=Sammi Smith - Help Me Make It Through The Night
TTITLE5=Hank Snow - I'm Moving On
TTITLE6=Roger Miller - King Of The Road
TTITLE7=Eddy Arnold - Anytime
TTITLE8=Chet Atkins - Country Gentleman
TTITLE9=Skeeter Davies - The End Of The World
TTITLE10=Don Gibson - Oh Lonesome Me
TTITLE11=Kitty Wells and Red Foley - You And Me
TTITLE12=Dolly Parton - Mule Skinner Blues
TTITLE13=Jimmy Dean - Big Bad John
TTITLE14=Bobby Bare - Detroit City
TTITLE15=Owen Bradley - Blues Stay Away From Me
TTITLE16=Wilma Burgess - Tear Time
TTITLE17=Webb Pierce - In The Jailhouse Now
TTITLE18=Jim Reeves - Four Walls
TTITLE19=Patsy Cline - I Fall To Pieces
TTITLE20=George Hamilton IV - Abilene
TTITLE21=Danny Davis and the Nashville Brass - Wabash Cannon Ball
TTITLE22=Warner Mack - Sittin' In An All Nite Cafe
TTITLE23=Mel Tillis - Too Lonely, Too Long
EXTD=
EXTT0=
EXTT1=
EXTT2=
EXTT3=
EXTT4=
EXTT5=
EXTT6=
EXTT7=
EXTT8=
EXTT9=
EXTT10=
EXTT11=
EXTT12=
EXTT13=
EXTT14=
EXTT15=
EXTT16=
EXTT17=
EXTT18=
EXTT19=
EXTT20=
EXTT21=
EXTT22=
EXTT23=
PLAYORDER=
